<svg width="360" height="314" viewBox="0 0 360 314" fill="none" xmlns="http://www.w3.org/2000/svg">
<path d="M172 314H241C247.5 314 256 304.5 249 294C243.4 285.6 165.5 169.25 162 164C158.5 158.75 158 156 162 150C166 144 242.5 29.5001 249 20.0001C255.5 10.5 248.5 0.999963 238 0.999994H171C164.362 1.00002 159.5 9.5 158.5 11.0001C157.5 12.5002 69 145.5 66 150C63 154.5 62.5 159.5 66 165C69.5 170.5 158 303.5 161 308C164 312.5 167 314 172 314Z" fill="#1F2937"/>
<path d="M0 14.0001V300C0 305.5 4 314 12.5 314H67C75.5 314 81.9655 310.851 82 300V235.5C81.6431 231.924 80.6961 229.836 78 226L36 164.5C36 164.5 34 160.5 34 157.5C34 154.5 36 150 36 150L78 87.0002C80.5 83.0002 82 78.0002 82 74.5002C82 74.5002 81.5 20.0001 81.5 14.0001C81.5 8.00009 77.5 1.00012 69.5 1.00015H12C3.5 1.00012 0 8.49999 0 14.0001Z" fill="#1F2937"/>
<path d="M220.297 197H303C309.182 197 313 192 313 187V128.5C313 122.5 308 118 302 118H221.5C215.5 118 213 122 211 125L193 152C190 156.5 190 160.5 193.044 165.065C196.087 169.631 207.5 186.5 211 192C214.5 197.5 219.5 197 220.297 197Z" fill="#278787"/>
<path d="M264.5 80.5C278.5 80.0001 340 81 348 81C356 81 360 76 360 69V12C360 5.49999 357 4.57418e-06 348 4.5742e-06L298 9.58099e-06C292.341 2.76726e-05 290.637 3.16208 289 5.50003C287.363 7.83798 260 49 252 61C244 73 250.5 81 264.5 80.5Z" fill="#278787"/>
<path d="M257 234H347C356.5 234 360 239.5 360 247V300C360 313.5 352 314 347 314H297.326C294.5 314 291 313.5 288 309C285 304.5 255.192 260.5 250 253C244.808 245.5 250 234 257 234Z" fill="#278787"/>
</svg>
